<svg height="512" viewBox="0 0 64 64" width="512" xmlns="http://www.w3.org/2000/svg"><path d="m34 34a3 3 0 1 0 -3-3 3 3 0 0 0 3 3zm0-4a1 1 0 1 1 -1 1 1 1 0 0 1 1-1z"/><path d="m53 30h2v2h-2z"/><path d="m49 30h2v2h-2z"/><path d="m45 30h2v2h-2z"/><path d="m34 40a3 3 0 1 0 3 3 3 3 0 0 0 -3-3zm0 4a1 1 0 1 1 1-1 1 1 0 0 1 -1 1z"/><path d="m53 42h2v2h-2z"/><path d="m49 42h2v2h-2z"/><path d="m45 42h2v2h-2z"/><path d="m41 42h2v2h-2z"/><path d="m41 30h2v2h-2z"/><path d="m59 15a3 3 0 0 0 -3-3h-13v-5a5.006 5.006 0 0 0 -5-5h-28a5.006 5.006 0 0 0 -5 5v50a5.006 5.006 0 0 0 5 5h28a5.006 5.006 0 0 0 5-5v-7h13a3 3 0 0 0 3-3v-8a2.981 2.981 0 0 0 -.78-2 2.981 2.981 0 0 0 .78-2v-8a2.981 2.981 0 0 0 -.78-2 2.981 2.981 0 0 0 .78-2zm-2 0v8a1 1 0 0 1 -1 1h-26a1 1 0 0 1 -1-1v-8a1 1 0 0 1 1-1h26a1 1 0 0 1 1 1zm0 12v8a1 1 0 0 1 -1 1h-26a1 1 0 0 1 -1-1v-8a1 1 0 0 1 1-1h26a1 1 0 0 1 1 1zm-40-23h14v1a1 1 0 0 1 -1 1h-12a1 1 0 0 1 -1-1zm24 53a3 3 0 0 1 -3 3h-28a3 3 0 0 1 -3-3v-50a3 3 0 0 1 3-3h5v1a3 3 0 0 0 3 3h12a3 3 0 0 0 3-3v-1h5a3 3 0 0 1 3 3v5h-11a3 3 0 0 0 -3 3v8a2.981 2.981 0 0 0 .78 2 2.981 2.981 0 0 0 -.78 2v8a2.981 2.981 0 0 0 .78 2 2.981 2.981 0 0 0 -.78 2v8a3 3 0 0 0 3 3h11zm16-10a1 1 0 0 1 -1 1h-26a1 1 0 0 1 -1-1v-8a1 1 0 0 1 1-1h26a1 1 0 0 1 1 1z"/><path d="m34 22a3 3 0 1 0 -3-3 3 3 0 0 0 3 3zm0-4a1 1 0 1 1 -1 1 1 1 0 0 1 1-1z"/><path d="m53 18h2v2h-2z"/><path d="m49 18h2v2h-2z"/><path d="m45 18h2v2h-2z"/><path d="m41 18h2v2h-2z"/><path d="m19 16h4v2h-4z"/><path d="m15 16h2v2h-2z"/><path d="m11 16h2v2h-2z"/><path d="m21 20h4v2h-4z"/><path d="m17 20h2v2h-2z"/><path d="m13 20h2v2h-2z"/><path d="m19 28h4v2h-4z"/><path d="m15 28h2v2h-2z"/><path d="m11 28h2v2h-2z"/><path d="m21 32h4v2h-4z"/><path d="m17 32h2v2h-2z"/><path d="m13 32h2v2h-2z"/><path d="m19 40h4v2h-4z"/><path d="m15 40h2v2h-2z"/><path d="m11 40h2v2h-2z"/><path d="m21 44h4v2h-4z"/><path d="m17 44h2v2h-2z"/><path d="m13 44h2v2h-2z"/></svg>