<?xml version="1.0"?>
<svg xmlns="http://www.w3.org/2000/svg" height="512px" viewBox="0 0 485.134 485" width="512px"><g><path d="m482.046875 335.105469-159.03125-123.710938c-21.382813-16.59375-50.261719-19.808593-74.769531-8.320312l-20.0625-20.066407c-1.5-1.5-3.535156-2.34375-5.65625-2.34375-2.101563.015626-4.113282.859376-5.601563 2.34375l-180.640625-180.597656c-3.121094-3.125-8.1875-3.125-11.3125 0l-22.628906 22.625c-3.125 3.121094-3.125 8.1875 0 11.308594l180.597656 180.609375c-3.105468 3.121094-3.105468 8.167969 0 11.289063l20.066406 20.070312c-11.480468 24.507812-8.269531 53.382812 8.320313 74.769531l123.710937 159.015625c1.410157 1.808594 3.527344 2.921875 5.816407 3.0625h.496093c2.125.003906 4.160157-.839844 5.664063-2.34375l28.277344-28.269531c2.769531-2.765625 3.132812-7.128906.855469-10.3125l-28.671876-40.136719 40.167969 28.679688c3.183594 2.269531 7.542969 1.910156 10.304688-.855469l33.9375-33.9375c2.765625-2.761719 3.125-7.121094.855469-10.304687l-28.695313-40.140626 40.144531 28.679688c3.179688 2.269531 7.539063 1.90625 10.304688-.859375l28.277344-28.292969c1.632812-1.625 2.488281-3.871094 2.34375-6.167968-.140626-2.300782-1.265626-4.425782-3.085938-5.832032zm-451.417969-313.96875 174.9375 174.929687-11.320312 11.320313-174.929688-174.9375zm169.328125 203.25 22.609375-22.609375 11.695313 11.6875c-2.207031 1.746094-20.871094 20.410156-22.609375 22.617187zm248 136.621093-73.679687-52.621093c-3.179688-2.265625-7.53125-1.902344-10.292969.855469-2.761719 2.761718-3.128906 7.113281-.867187 10.296874l52.625 73.679688-24.359376 24.359375-73.679687-52.625c-3.183594-2.261719-7.535156-1.894531-10.292969.867187-2.761718 2.761719-3.125 7.113282-.859375 10.292969l52.625 73.679688-17.089843 17.082031-118.128907-151.867188c-17.316406-22.304687-15.34375-54.007812 4.601563-74l10.632812-10.628906c19.988282-19.953125 51.695313-21.921875 74-4.601562l151.863282 118.144531zm0 0" data-original="#000000" class="active-path" data-old_color="#000000" fill="#FFFFFF"/><path d="m242.847656 52.664062c13.253906 0 24-10.742187 24-24 0-13.253906-10.746094-24-24-24-13.257812 0-24 10.746094-24 24 0 13.257813 10.742188 24 24 24zm0-32c4.417969 0 8 3.582032 8 8 0 4.417969-3.582031 8-8 8-4.417968 0-8-3.582031-8-8 0-4.417968 3.582032-8 8-8zm0 0" data-original="#000000" class="active-path" data-old_color="#000000" fill="#FFFFFF"/><path d="m434.847656 212.664062c17.671875 0 32-14.324218 32-32 0-17.671874-14.328125-32-32-32-17.675781 0-32 14.328126-32 32 0 17.675782 14.324219 32 32 32zm0-48c8.835938 0 16 7.164063 16 16 0 8.835938-7.164062 16-16 16-8.839844 0-16-7.164062-16-16 0-8.835937 7.160156-16 16-16zm0 0" data-original="#000000" class="active-path" data-old_color="#000000" fill="#FFFFFF"/><path d="m34.847656 212.664062c-17.675781 0-32 14.328126-32 32 0 17.675782 14.324219 32 32 32 17.671875 0 32-14.324218 32-32 0-17.671874-14.328125-32-32-32zm0 48c-8.839844 0-16-7.164062-16-16 0-8.835937 7.160156-16 16-16 8.835938 0 16 7.164063 16 16 0 8.835938-7.164062 16-16 16zm0 0" data-original="#000000" class="active-path" data-old_color="#000000" fill="#FFFFFF"/><path d="m178.847656 412.664062c-13.257812 0-24 10.746094-24 24 0 13.257813 10.742188 24 24 24 13.253906 0 24-10.742187 24-24 0-13.253906-10.746094-24-24-24zm0 32c-4.417968 0-8-3.582031-8-8 0-4.417968 3.582032-8 8-8 4.417969 0 8 3.582032 8 8 0 4.417969-3.582031 8-8 8zm0 0" data-original="#000000" class="active-path" data-old_color="#000000" fill="#FFFFFF"/></g> </svg>
