<?xml version="1.0"?>
<svg xmlns="http://www.w3.org/2000/svg" viewBox="0 0 64 64" width="512px" height="512px"><g><g id="Bucket-3" data-name="Bucket"><path d="M61,14H57V11a1,1,0,0,0-1-1H53.958c.015-.167.042-.331.042-.5A5.506,5.506,0,0,0,48.5,4a5.45,5.45,0,0,0-4.964,3.167,6,6,0,0,0-4.787-1.032A7,7,0,0,0,26.909,3.2,6.99,6.99,0,0,0,16.562,6.254,4.92,4.92,0,0,0,15,6a5.009,5.009,0,0,0-4.9,4H8a1,1,0,0,0-1,1v3H3a1,1,0,0,0-1,1v8A24.344,24.344,0,0,0,8.489,40.03l.466,20.04a3.018,3.018,0,0,0,3,2.93H52.046a3.018,3.018,0,0,0,3-2.93l.466-20.04A24.344,24.344,0,0,0,62,23V15A1,1,0,0,0,61,14ZM53.528,39.281A26.881,26.881,0,0,1,40,46.154V45a1,1,0,0,0-1-1H25a1,1,0,0,0-1,1v1.154a26.881,26.881,0,0,1-13.528-6.873L10.023,20H53.977ZM38,46v4H26V46ZM45.038,9.173a3.487,3.487,0,1,1,6.92.827H44.4A.99.99,0,0,0,45.038,9.173ZM15,8a2.992,2.992,0,0,1,1.619.482,1,1,0,0,0,1.515-.615,4.989,4.989,0,0,1,8.251-2.538.991.991,0,0,0,.788.259,1,1,0,0,0,.713-.425,5,5,0,0,1,9.09,2.367,1,1,0,0,0,1.4.821,3.989,3.989,0,0,1,4.854,1.315,1,1,0,0,0,.436.334H12.184A3,3,0,0,1,15,8ZM9,12H55v6H9ZM4,23V16H7v3a1,1,0,0,0,1,1h.023l.395,16.962A22.748,22.748,0,0,1,4,23ZM52.046,61H11.954a.994.994,0,0,1-1-.977l-.42-18.064A29.762,29.762,0,0,0,24,48.2V51a1,1,0,0,0,1,1H39a1,1,0,0,0,1-1V48.2a29.762,29.762,0,0,0,13.466-6.238l-.42,18.064A.994.994,0,0,1,52.046,61ZM60,23a22.748,22.748,0,0,1-4.418,13.962L55.977,20H56a1,1,0,0,0,1-1V16h3Z" data-original="#000000" class="active-path" data-old_color="#000000" fill="#FFFFFF"/><path d="M23,57H14a1,1,0,0,0,0,2h9a1,1,0,0,0,0-2Z" data-original="#000000" class="active-path" data-old_color="#000000" fill="#FFFFFF"/><path d="M28,57H26a1,1,0,0,0,0,2h2a1,1,0,0,0,0-2Z" data-original="#000000" class="active-path" data-old_color="#000000" fill="#FFFFFF"/><path d="M4,6V8A1,1,0,0,0,6,8V6H8A1,1,0,0,0,8,4H6V2A1,1,0,0,0,4,2V4H2A1,1,0,0,0,2,6Z" data-original="#000000" class="active-path" data-old_color="#000000" fill="#FFFFFF"/><path d="M11,6h1a1,1,0,0,0,0-2H11a1,1,0,0,0,0,2Z" data-original="#000000" class="active-path" data-old_color="#000000" fill="#FFFFFF"/><path d="M57,8h1V9a1,1,0,0,0,2,0V8h1a1,1,0,0,0,0-2H60V5a1,1,0,0,0-2,0V6H57a1,1,0,0,0,0,2Z" data-original="#000000" class="active-path" data-old_color="#000000" fill="#FFFFFF"/></g></g> </svg>
